# xmcd CD database file
#
# Track frame offsets:
#	150
#	14304
#	29340
#	46931
#	64791
#	79219
#	92398
#	107292
#	121424
#	139293
#	149795
#	164814
#	181847
#	196544
#
# Disc length: 2935 seconds
#
# Revision: 2
# Processed by: cddbd v1.5.2PL0 Copyright (c) Steve Scherf et al.
# Submitted via: CDex 1.51
#
DISCID=ba0b750e
DTITLE=Heimatdamisch - Highway To Oberkrain
DYEAR=2014
DGENRE=Folklore
TTITLE0=Aber an Huat lossd auf
TTITLE1=Take on me
TTITLE2=Poker Face
TTITLE3=Ja des gfreid mi
TTITLE4=Run to the hills
TTITLE5=Auf der Amarillo-Autobahn
TTITLE6=99 Luftballons
TTITLE7=Bei mir bist du scheen
TTITLE8=Da Da Da
TTITLE9=Don't pay the ferryman
TTITLE10=Highway to hell
TTITLE11=Der letzte Countdown
TTITLE12=Smells like teen Spirit
TTITLE13=Am Doch brennt a Feia
EXTD=YEAR: 2014
EXTT0=
EXTT1=
EXTT2=
EXTT3=
EXTT4=
EXTT5=
EXTT6=
EXTT7=
EXTT8=
EXTT9=
EXTT10=
EXTT11=
EXTT12=
EXTT13=
PLAYORDER=
